<svg xmlns="http://www.w3.org/2000/svg" xmlns:xlink="http://www.w3.org/1999/xlink" version="1.1" data-diagram-type="DESCRIPTION" style="width:609px;height:1066px;background:#FFFFFF;" width="609px" height="1066px" viewBox="0 0 609 1066" zoomAndPan="magnify" preserveAspectRatio="none" contentStyleType="text/css"><?plantuml 1.2026.7beta5?><defs/><g font-family="sans-serif" lengthAdjust="spacing"><!--cluster Приложение решения транспортной задачи\nметодом северо-западного угла--><g class="cluster" data-qualified-name=".......... ....... ............ .......n....... ......-......... ...." id="ent0002" data-source-line="5"><rect x="220.1" y="7" width="375.03" height="1045" fill="none" style="stroke:#181818;stroke-width:1;" rx="2.5" ry="2.5"/><text x="227.297" y="21.995" fill="#000" font-size="14" textLength="360.637" font-weight="700">Приложение решения транспортной задачи</text><text x="276.235" y="38.292" fill="#000" font-size="14" textLength="262.76" font-weight="700">методом северо-западного угла</text></g><!--entity Input--><g class="entity" data-qualified-name=".......... ....... ............ .......n....... ......-......... .....Input" id="ent0003" data-source-line="6"><ellipse cx="407.12" cy="82.004" rx="105.77" ry="23.554" fill="#F1F1F1" style="stroke:#181818;stroke-width:0.5;"/><text x="312.771" y="86.653" fill="#000" font-size="14" textLength="188.699">Ввести исходные данные</text></g><!--entity Manual--><g class="entity" data-qualified-name=".......... ....... ............ .......n....... ......-......... .....Manual" id="ent0004" data-source-line="7"><ellipse cx="407.121" cy="163" rx="101.551" ry="22.71" fill="#F1F1F1" style="stroke:#181818;stroke-width:0.5;"/><text x="317.386" y="167.649" fill="#000" font-size="14" textLength="179.471">Ввести данные вручную</text></g><!--entity FileInput--><g class="entity" data-qualified-name=".......... ....... ............ .......n....... ......-......... .....FileInput" id="ent0005" data-source-line="8"><ellipse cx="407.12" cy="246" rx="114.85" ry="25.37" fill="#F1F1F1" style="stroke:#181818;stroke-width:0.5;"/><text x="302.954" y="250.648" fill="#000" font-size="14" textLength="208.332">Загрузить данные из файла</text></g><!--entity Solve--><g class="entity" data-qualified-name=".......... ....... ............ .......n....... ......-......... .....Solve" id="ent0006" data-source-line="10"><ellipse cx="407.117" cy="795.997" rx="121.037" ry="26.607" fill="#F1F1F1" style="stroke:#181818;stroke-width:0.5;"/><text x="296.334" y="800.646" fill="#000" font-size="14" textLength="221.566">Решить транспортную задачу</text></g><!--entity Validate--><g class="entity" data-qualified-name=".......... ....... ............ .......n....... ......-......... .....Validate" id="ent0007" data-source-line="11"><ellipse cx="407.116" cy="689.003" rx="132.516" ry="28.903" fill="#F1F1F1" style="stroke:#181818;stroke-width:0.5;"/><text x="284.175" y="693.652" fill="#000" font-size="14" textLength="245.882">Проверить корректность данных</text></g><!--entity Balance--><g class="entity" data-qualified-name=".......... ....... ............ .......n....... ......-......... .....Balance" id="ent0008" data-source-line="12"><ellipse cx="407.117" cy="924.003" rx="163.017" ry="35.003" fill="#F1F1F1" style="stroke:#181818;stroke-width:0.5;"/><text x="261.169" y="923.678" fill="#000" font-size="14" textLength="291.895">Автоматически сбалансировать задачу</text><text x="280.126" y="939.975" fill="#000" font-size="14" textLength="253.982">(добавить фиктивного участника)</text></g><!--entity NorthWest--><g class="entity" data-qualified-name=".......... ....... ............ .......n....... ......-......... .....NorthWest" id="ent0009" data-source-line="13"><ellipse cx="407.117" cy="333.999" rx="124.147" ry="27.229" fill="#F1F1F1" style="stroke:#181818;stroke-width:0.5;"/><text x="313.448" y="331.431" fill="#000" font-size="14" textLength="187.339">Построить план методом</text><text x="321.931" y="347.727" fill="#000" font-size="14" textLength="170.372">северо-западного угла</text></g><!--entity Cost--><g class="entity" data-qualified-name=".......... ....... ............ .......n....... ......-......... .....Cost" id="ent0010" data-source-line="14"><ellipse cx="407.118" cy="423" rx="119.848" ry="26.37" fill="#F1F1F1" style="stroke:#181818;stroke-width:0.5;"/><text x="297.603" y="427.648" fill="#000" font-size="14" textLength="219.03">Рассчитать общую стоимость</text></g><!--entity Show--><g class="entity" data-qualified-name=".......... ....... ............ .......n....... ......-......... .....Show" id="ent0011" data-source-line="15"><ellipse cx="407.119" cy="512.002" rx="125.659" ry="27.532" fill="#F1F1F1" style="stroke:#181818;stroke-width:0.5;"/><text x="291.424" y="516.65" fill="#000" font-size="14" textLength="231.39">Вывести результат в терминал</text></g><!--entity Save--><g class="entity" data-qualified-name=".......... ....... ............ .......n....... ......-......... .....Save" id="ent0012" data-source-line="16"><ellipse cx="407.125" cy="600.004" rx="111.135" ry="25.234" fill="#F1F1F1" style="stroke:#181818;stroke-width:0.5;"/><text x="327.865" y="597.676" fill="#000" font-size="14" textLength="158.519">Сохранить результат</text><text x="340.228" y="613.973" fill="#000" font-size="14" textLength="133.793">в текстовый файл</text></g><!--entity Exit--><g class="entity" data-qualified-name=".......... ....... ............ .......n....... ......-......... .....Exit" id="ent0013" data-source-line="17"><ellipse cx="407.115" cy="1014.995" rx="91.025" ry="20.605" fill="#F1F1F1" style="stroke:#181818;stroke-width:0.5;"/><text x="329.086" y="1019.643" fill="#000" font-size="14" textLength="156.058">Выйти из программы</text></g><!--entity User--><g class="entity" data-qualified-name="User" id="ent0001" data-source-line="3"><ellipse cx="57.55" cy="433.35" rx="8" ry="8" fill="#F1F1F1" style="stroke:#181818;stroke-width:0.5;"/><path d="M57.55,441.35 L57.55,468.35 M44.55,449.35 L70.55,449.35 M57.55,468.35 L44.55,483.35 M57.55,468.35 L70.55,483.35" style="stroke:#181818;stroke-width:0.5;" fill="none"/><text x="6" y="497.845" fill="#000" font-size="14" textLength="103.1">Пользователь</text></g><!--link User to Manual--><g class="link" data-entity-1="ent0001" data-entity-2="ent0004" id="lnk14" data-source-line="20" data-link-type="dependency"><path d="M66.41,424.37 C76.96,379.89 99.18,306.37 139.1,255 C179.64,202.83 246.548,180.912 305.508,171.082" style="stroke:#181818;stroke-width:1;" fill="none" id="User-to-Manual"/><polygon points="310.44,170.26,300.905,167.795,305.508,171.082,302.22,175.686,310.44,170.26" fill="#181818" style="stroke:#181818;stroke-width:1;stroke-linejoin:miter;stroke-miterlimit:10;"/></g><!--link User to FileInput--><g class="link" data-entity-1="ent0001" data-entity-2="ent0005" id="lnk15" data-source-line="21" data-link-type="dependency"><path d="M109.6,452.6 C142.24,443.12 182.4,425.57 204.1,394 C217.35,374.71 196.77,306.68 212.1,289 C232.27,265.74 257.06,254.466 287.18,248.346" style="stroke:#181818;stroke-width:1;" fill="none" id="User-to-FileInput"/><polygon points="292.08,247.35,282.464,245.222,287.18,248.346,284.057,253.062,292.08,247.35" fill="#181818" style="stroke:#181818;stroke-width:1;stroke-linejoin:miter;stroke-miterlimit:10;"/></g><!--link User to Solve--><g class="link" data-entity-1="ent0001" data-entity-2="ent0006" id="lnk16" data-source-line="22" data-link-type="dependency"><path d="M109.48,489.38 C142.74,509.6 183.67,540.85 204.1,581 C211.87,596.27 201.61,721.45 212.1,735 C232.42,761.24 259.158,775.106 290.958,783.836" style="stroke:#181818;stroke-width:1;" fill="none" id="User-to-Solve"/><polygon points="295.78,785.16,288.16,778.92,290.958,783.836,286.042,786.635,295.78,785.16" fill="#181818" style="stroke:#181818;stroke-width:1;stroke-linejoin:miter;stroke-miterlimit:10;"/></g><!--link User to Exit--><g class="link" data-entity-1="ent0001" data-entity-2="ent0013" id="lnk17" data-source-line="23" data-link-type="dependency"><path d="M64.61,501.4 C82.47,609.58 138.33,913.16 212.1,977 C240.52,1001.59 275.15,1011.552 311.18,1015.522" style="stroke:#181818;stroke-width:1;" fill="none" id="User-to-Exit"/><polygon points="316.15,1016.07,307.642,1011.108,311.18,1015.522,306.766,1019.06,316.15,1016.07" fill="#181818" style="stroke:#181818;stroke-width:1;stroke-linejoin:miter;stroke-miterlimit:10;"/></g><!--link Manual to Input--><g class="link" data-entity-1="ent0004" data-entity-2="ent0003" id="lnk18" data-source-line="25" data-link-type="extension"><path d="M407.12,139.9 C407.12,128.59 407.12,135.28 407.12,123.98" style="stroke:#181818;stroke-width:1;" fill="none" id="Manual-to-Input"/><polygon points="407.12,105.98,401.12,123.98,413.12,123.98,407.12,105.98" fill="none" style="stroke:#181818;stroke-width:1;stroke-linejoin:miter;stroke-miterlimit:10;"/></g><!--link FileInput to Input--><g class="link" data-entity-1="ent0005" data-entity-2="ent0003" id="lnk19" data-source-line="26" data-link-type="extension"><path d="M299.78,236.69 C215.59,224.86 119.05,198.5 160.6,140.5 C192.3,96.25 233.008,82.429 285.148,78.599" style="stroke:#181818;stroke-width:1;" fill="none" id="FileInput-to-Input"/><polygon points="303.1,77.28,284.709,72.615,285.588,84.583,303.1,77.28" fill="none" style="stroke:#181818;stroke-width:1;stroke-linejoin:miter;stroke-miterlimit:10;"/></g><!--link Solve to Input--><g class="link" data-entity-1="ent0006" data-entity-2="ent0003" id="lnk20" data-source-line="28" data-link-type="dependency"><path d="M296.33,784.94 C264.47,776.2 232.78,761.05 212.1,735 C146.78,652.73 165.77,367.81 178.19,263.5 C185.78,199.71 166.01,167.75 212.1,123 C235.74,100.05 263.86,89.336 296.04,83.876" style="stroke:#181818;stroke-width:1;stroke-dasharray:7,7;" fill="none" id="Solve-to-Input"/><polygon points="300.97,83.04,291.428,80.602,296.04,83.876,292.766,88.489,300.97,83.04" fill="#181818" style="stroke:#181818;stroke-width:1;stroke-linejoin:miter;stroke-miterlimit:10;"/><text x="140.1" y="276.567" fill="#000" font-size="13" textLength="63.007">«include»</text></g><!--link Solve to Validate--><g class="link" data-entity-1="ent0006" data-entity-2="ent0007" id="lnk21" data-source-line="29" data-link-type="dependency"><path d="M407.12,769 C407.12,753.52 407.12,739.09 407.12,723.25" style="stroke:#181818;stroke-width:1;stroke-dasharray:7,7;" fill="none" id="Solve-to-Validate"/><polygon points="407.12,718.25,403.12,727.25,407.12,723.25,411.12,727.25,407.12,718.25" fill="#181818" style="stroke:#181818;stroke-width:1;stroke-linejoin:miter;stroke-miterlimit:10;"/><text x="364.12" y="748.217" fill="#000" font-size="13" textLength="63.007">«include»</text></g><!--link Solve to NorthWest--><g class="link" data-entity-1="ent0006" data-entity-2="ent0009" id="lnk22" data-source-line="30" data-link-type="dependency"><path d="M296.93,784.72 C265.01,775.98 233.13,760.88 212.1,735 C160.66,671.69 125.11,431.44 178.19,369.5 C206.19,336.82 245.788,325.541 288.198,323.151" style="stroke:#181818;stroke-width:1;stroke-dasharray:7,7;" fill="none" id="Solve-to-NorthWest"/><polygon points="293.19,322.87,283.979,319.383,288.198,323.151,284.429,327.37,293.19,322.87" fill="#181818" style="stroke:#181818;stroke-width:1;stroke-linejoin:miter;stroke-miterlimit:10;"/><text x="140.1" y="382.567" fill="#000" font-size="13" textLength="63.007">«include»</text></g><!--link Solve to Cost--><g class="link" data-entity-1="ent0006" data-entity-2="ent0010" id="lnk23" data-source-line="31" data-link-type="dependency"><path d="M297.99,807.88 C254.19,806.29 207.29,795.32 178.19,761.5 C171.18,753.36 102.68,587.98 212.1,467 C231.71,445.31 254.668,434.253 283.178,427.683" style="stroke:#181818;stroke-width:1;stroke-dasharray:7,7;" fill="none" id="Solve-to-Cost"/><polygon points="288.05,426.56,278.382,424.683,283.178,427.683,280.178,432.479,288.05,426.56" fill="#181818" style="stroke:#181818;stroke-width:1;stroke-linejoin:miter;stroke-miterlimit:10;"/><text x="140.1" y="757.567" fill="#000" font-size="13" textLength="63.007">«include»</text></g><!--link Solve to Show--><g class="link" data-entity-1="ent0006" data-entity-2="ent0011" id="lnk24" data-source-line="32" data-link-type="dependency"><path d="M300.62,782.94 C268.42,774.12 235.45,759.43 212.1,735 C166.22,687 152.12,650.57 178.19,589.5 C195.97,547.82 234.612,528.561 278.992,519.021" style="stroke:#181818;stroke-width:1;stroke-dasharray:7,7;" fill="none" id="Solve-to-Show"/><polygon points="283.88,517.97,274.24,515.951,278.992,519.021,275.922,523.772,283.88,517.97" fill="#181818" style="stroke:#181818;stroke-width:1;stroke-linejoin:miter;stroke-miterlimit:10;"/><text x="140.1" y="602.567" fill="#000" font-size="13" textLength="63.007">«include»</text></g><!--link Solve to Save--><g class="link" data-entity-1="ent0006" data-entity-2="ent0012" id="lnk25" data-source-line="33" data-link-type="dependency"><path d="M307.26,780.55 C232.62,763.85 148.23,730.93 178.19,669.5 C199.31,626.19 243.345,608.602 290.605,601.512" style="stroke:#181818;stroke-width:1;stroke-dasharray:7,7;" fill="none" id="Solve-to-Save"/><polygon points="295.55,600.77,286.056,598.15,290.605,601.512,287.243,606.061,295.55,600.77" fill="#181818" style="stroke:#181818;stroke-width:1;stroke-linejoin:miter;stroke-miterlimit:10;"/><text x="140.1" y="682.567" fill="#000" font-size="13" textLength="63.007">«include»</text></g><!--link Balance to Solve--><g class="link" data-entity-1="ent0008" data-entity-2="ent0006" id="lnk26" data-source-line="35" data-link-type="dependency"><path d="M407.12,888.68 C407.12,867.97 407.12,847.19 407.12,828.08" style="stroke:#181818;stroke-width:1;stroke-dasharray:7,7;" fill="none" id="Balance-to-Solve"/><polygon points="407.12,823.08,403.12,832.08,407.12,828.08,411.12,832.08,407.12,823.08" fill="#181818" style="stroke:#181818;stroke-width:1;stroke-linejoin:miter;stroke-miterlimit:10;"/><text x="357.573" y="852.867" fill="#000" font-size="13" textLength="61.185">«extend»</text><text x="275.12" y="868" fill="#000" font-size="13" textLength="226.091">[если задача несбалансирована]</text></g><?plantuml-src ZLJDhj9G4DxtAIQiT84FO6wwq6ZYGZT6NOYB1kgbITCQA7eJDRd09MhkZPgxSQc-GOLRAT32AvppHdupv_1pYnX9e9mpCzzyC_DDG_zbGabCdU2udL0hwFZD98WZn_6QIToXclgkbcgXBzGKpx5AzK1bVAwHrwKdNR_ZE1pYHSUXpzxwLELg0T_Vy2lnFoDSPVgZEUelf0UuI5Mf-sgbbleKY2NyPuGKgRf2YWygRqIgGDG0XYjy2u9tXlmPOfTryLo9DuTEr9Bq48-5IclqrY5yUbs_wNMPqgM4zO6L4mZqzKX0ItqERfmF67AGaXv4hth9ln1s0aYDGNy8lYL-FqlyGo_gUM45u1jY9kmAuZdglwZ0v6fA-WmtCrC2SEu7eM-uLB1-I3CDojzQoKnsMgc70lSu3b_x5IIUrTBsrBAQ2mhcfUPcB5prDRfw97XFlJ1eUKaLyYiwmZChH2WvEeE-0JNd-Vq2niBIpMtkrC3lq6r4DsJax3rUrtc65Z6Z75VRYGC-bR6mpkOglIdKxdYX5pNtYhMrS5fRxCgmeUjAQqJ_BpLaUnHtalOplvliZOcfzLdBmBPbeYhzIGOajC44kMsF1Urkl0Tq2ObivIUpcO81Lj3WGeJ4ImbB0RoIcsn6texVLB1-8jd8I6RTsJqyR9u1HCCDoJ4Op3RwDDZUdfgOvymk6UIiLjBgYMGhLA7F9V3UIP0uxns7tnnKhxlhVTcSjxhVN1djReu2uPWughzpxSfk0dVk70cbM_PCj-deA8YQOQ_bk-xMk1Rp8VjcneSSU6o7R3o6WpQqiM9ph7p5B7vizqyIFsgvRYDwBXkru3PlNvSfOQ3PeHLZJRpu0m00?></g></svg>